<?xml version="1.0" standalone="no"?>
<!DOCTYPE svg PUBLIC "-//W3C//DTD SVG 20010904//EN"
 "http://www.w3.org/TR/2001/REC-SVG-20010904/DTD/svg10.dtd">
<svg version="1.0" xmlns="http://www.w3.org/2000/svg"
 width="1600.000000pt" height="774.000000pt" viewBox="0 0 1600.000000 774.000000"
 preserveAspectRatio="xMidYMid meet">

<g transform="translate(0.000000,774.000000) scale(0.100000,-0.100000)"
fill="#000000" stroke="none">
<path d="M4585 5710 c-478 -86 -893 -397 -1112 -835 -104 -206 -151 -395 -160
-635 -12 -336 73 -636 264 -925 89 -135 282 -327 419 -418 486 -322 1101 -348
1610 -66 610 338 924 1054 754 1724 -62 247 -169 454 -333 646 -225 263 -565
453 -921 514 -124 21 -391 19 -521 -5z m570 -59 c50 -11 110 -27 134 -34 l44
-14 -79 -12 c-114 -19 -233 -65 -332 -130 -60 -39 -106 -61 -146 -70 -123 -27
-301 -145 -389 -258 -99 -126 -135 -207 -176 -400 -37 -171 -74 -226 -189
-279 -109 -51 -127 -90 -71 -160 52 -66 53 -70 25 -119 -35 -58 -34 -94 4
-130 29 -28 30 -29 11 -49 -31 -35 -32 -53 -6 -85 29 -33 31 -51 11 -89 -39
-77 -23 -155 42 -199 49 -32 106 -38 203 -18 163 33 279 6 372 -88 85 -86 113
-195 88 -341 -27 -155 -91 -250 -203 -302 -60 -27 -70 -29 -189 -28 l-127 1
-79 48 c-177 104 -345 257 -456 413 -208 291 -316 685 -278 1016 24 206 60
334 145 511 220 457 658 771 1164 835 111 14 375 4 477 -19z m357 -140 c84
-32 154 -100 197 -191 33 -71 35 -80 35 -180 -1 -163 -47 -266 -169 -378 -173
-158 -474 -256 -750 -243 -26 1 -18 8 60 49 200 104 315 224 351 362 35 139
-2 286 -96 374 -55 51 -89 70 -155 87 -45 11 -47 13 -29 26 51 39 204 101 284
117 61 11 216 -2 272 -23z m398 -270 c215 -216 345 -453 412 -752 31 -138 33
-445 5 -579 -52 -244 -145 -451 -286 -635 -53 -69 -190 -215 -202 -215 -4 0 3
28 17 62 67 173 58 370 -26 526 -103 190 -228 303 -460 414 -310 149 -367 184
-495 313 l-80 80 115 6 c449 25 785 227 874 528 31 105 19 259 -29 375 -16 37
38 -5 155 -123z m-889 77 c62 -26 132 -102 153 -165 23 -66 21 -180 -4 -246
-36 -95 -154 -208 -290 -277 -35 -18 -81 -43 -102 -56 -21 -13 -40 -24 -43
-24 -11 0 -65 130 -80 193 -19 81 -19 217 0 292 23 87 72 171 145 248 l65 69
53 -6 c30 -4 76 -16 103 -28z m-304 -40 c-151 -190 -179 -444 -73 -672 19 -42
30 -76 25 -76 -5 0 -37 9 -70 20 -119 40 -178 95 -205 187 -38 129 38 319 190
482 43 45 130 101 159 101 5 0 -7 -19 -26 -42z m-368 -339 c-38 -123 -18 -253
51 -332 45 -51 153 -111 219 -122 44 -7 50 -15 27 -35 -27 -22 -49 -108 -44
-173 8 -112 40 -162 218 -337 91 -89 166 -173 178 -197 38 -75 79 -187 102
-278 31 -125 26 -274 -13 -356 -49 -102 -144 -178 -274 -220 -59 -20 -224 -51
-231 -44 -2 2 16 22 41 44 89 82 138 217 141 386 1 93 -1 105 -31 167 -85 179
-270 267 -473 224 -94 -20 -143 -20 -180 -1 -54 28 -62 66 -29 140 23 52 20
96 -8 127 -15 17 -15 20 5 41 32 34 28 64 -13 100 l-35 31 25 42 c35 60 33
101 -10 157 -19 25 -35 50 -35 56 0 5 36 29 80 52 132 68 170 128 214 339 20
99 75 250 89 250 3 0 -4 -27 -14 -61z m471 -593 c101 -107 210 -179 447 -297
318 -158 397 -223 508 -418 49 -88 67 -157 67 -264 0 -139 -36 -256 -114 -368
-29 -42 -57 -67 -119 -103 -77 -46 -249 -126 -270 -126 -6 0 6 19 26 43 50 58
103 170 114 242 27 182 -64 376 -286 609 -38 39 -144 141 -238 226 -234 214
-261 246 -291 348 -19 64 -8 123 33 186 l26 40 21 -30 c11 -16 45 -55 76 -88z
m431 -831 c217 -270 232 -492 47 -691 -83 -88 -106 -100 -229 -118 -203 -30
-415 -16 -623 42 l-99 27 135 6 c286 14 456 68 570 182 153 153 167 391 42
711 -8 20 103 -92 157 -159z"/>
<path d="M7909 5147 c-70 -37 -109 -110 -109 -204 l0 -42 -67 -3 c-57 -3 -68
-6 -71 -22 -6 -27 15 -36 82 -36 l58 0 -3 -273 c-3 -213 -7 -278 -18 -290 -9
-12 -30 -17 -70 -17 -64 0 -84 -9 -79 -36 3 -18 15 -19 198 -19 183 0 195 1
198 19 5 26 -15 36 -79 36 -40 0 -61 5 -70 16 -10 12 -14 82 -17 290 l-4 274
93 0 c101 0 123 7 117 36 -3 17 -15 19 -106 22 l-103 3 7 52 c16 125 91 185
195 157 38 -11 38 -11 19 -30 -24 -24 -25 -48 -4 -78 19 -28 74 -30 97 -4 20
22 22 90 4 113 -47 63 -183 81 -268 36z"/>
<path d="M8402 5163 c-13 -3 -43 -23 -67 -46 -44 -43 -59 -78 -70 -169 l-6
-48 -64 0 c-66 0 -80 -9 -63 -42 7 -14 22 -18 68 -18 l60 0 0 -271 c0 -167 -4
-278 -10 -290 -9 -16 -22 -19 -75 -19 -53 0 -66 -3 -74 -19 -8 -13 -7 -22 2
-29 7 -5 94 -9 199 -9 157 0 188 2 193 15 10 27 -15 42 -74 42 -31 0 -63 5
-71 10 -13 8 -16 54 -18 290 l-3 280 94 0 c99 0 124 10 111 44 -5 13 -23 16
-106 16 l-101 0 6 55 c11 105 60 156 151 157 63 1 86 -11 61 -32 -20 -16 -19
-64 1 -84 24 -24 80 -20 98 6 36 51 7 126 -60 154 -31 13 -130 17 -182 7z"/>
<path d="M8725 5085 c-28 -27 -30 -37 -14 -68 16 -29 28 -37 60 -37 54 0 79
70 39 110 -27 27 -56 25 -85 -5z"/>
<path d="M9725 5085 c-14 -13 -25 -33 -25 -45 0 -29 35 -60 68 -60 58 0 83 70
40 110 -29 27 -54 25 -83 -5z"/>
<path d="M7240 4911 c-184 -39 -292 -231 -250 -443 15 -80 40 -129 96 -188 63
-68 128 -95 229 -95 71 0 89 4 148 33 119 59 187 179 187 332 0 201 -126 352
-305 364 -39 3 -86 2 -105 -3z m182 -72 c94 -50 149 -144 156 -268 11 -185
-83 -312 -241 -328 -110 -11 -206 46 -256 152 -29 61 -39 181 -21 253 23 98
98 181 182 203 42 11 151 3 180 -12z"/>
<path d="M9213 4910 c-98 -21 -178 -87 -227 -190 -29 -61 -31 -72 -31 -175 0
-97 3 -116 26 -165 49 -105 113 -159 221 -186 69 -18 154 -13 214 12 86 36
159 140 152 216 -2 28 -7 33 -28 33 -19 0 -27 -7 -33 -30 -20 -67 -53 -120
-95 -150 -40 -27 -50 -30 -125 -30 -91 0 -138 18 -189 72 -93 98 -104 321 -20
433 32 43 46 54 97 82 58 32 173 31 233 0 48 -25 82 -73 82 -114 0 -26 -2 -27
-25 -16 -34 15 -75 -12 -75 -50 0 -35 9 -48 43 -61 58 -22 127 36 127 106 0
73 -59 156 -136 192 -52 25 -149 34 -211 21z"/>
<path d="M10410 4911 c-56 -13 -85 -28 -124 -61 l-35 -31 -6 28 c-4 15 -8 34
-11 41 -3 9 -30 12 -111 10 -108 -3 -108 -3 -108 -28 0 -24 2 -25 77 -28 l77
-3 6 -43 c4 -24 5 -147 3 -273 -2 -176 -6 -234 -17 -246 -9 -12 -30 -17 -70
-17 -64 0 -84 -9 -79 -36 3 -18 15 -19 198 -19 l195 0 0 25 c0 24 -3 25 -65
28 -35 2 -70 8 -78 14 -11 9 -13 56 -10 232 3 216 4 222 28 258 65 97 226 129
322 65 64 -43 73 -77 76 -307 2 -128 0 -215 -7 -232 -10 -27 -14 -28 -75 -28
-66 0 -92 -13 -81 -43 9 -22 391 -22 400 1 11 28 -15 42 -81 42 -50 0 -65 4
-73 18 -5 9 -11 116 -13 237 -4 195 -7 225 -25 265 -24 53 -64 93 -114 114
-45 19 -152 28 -199 17z"/>
<path d="M11141 4910 c-57 -12 -124 -52 -151 -91 -47 -65 -32 -153 30 -179 27
-11 37 -11 65 3 37 17 50 45 41 83 -8 30 -49 48 -77 34 -32 -18 -23 9 16 45
79 76 268 69 320 -12 9 -14 17 -45 18 -69 1 -81 -47 -109 -211 -125 -132 -12
-199 -41 -240 -102 -23 -35 -27 -51 -27 -113 0 -66 3 -76 31 -111 51 -64 105
-87 199 -87 93 1 150 21 213 78 l39 36 7 -30 c14 -71 100 -109 166 -74 51 27
70 73 70 167 0 60 -3 79 -15 83 -30 12 -45 -15 -45 -82 0 -34 -4 -74 -9 -87
-16 -42 -79 -48 -97 -9 -4 9 -10 128 -13 264 l-6 246 -30 44 c-18 26 -48 52
-76 66 -52 26 -151 36 -218 22z m267 -403 c-9 -136 -68 -222 -175 -253 -135
-39 -243 22 -243 138 0 39 6 54 31 82 36 41 70 53 197 66 52 6 113 19 135 29
23 11 46 20 51 20 5 1 7 -36 4 -82z"/>
<path d="M8584 4885 c-14 -36 3 -45 80 -45 l75 0 6 -43 c4 -24 5 -147 3 -274
-2 -176 -6 -234 -17 -246 -9 -12 -30 -17 -70 -17 -64 0 -84 -10 -79 -36 3 -18
15 -19 198 -19 183 0 195 1 198 19 5 26 -15 36 -79 36 -40 0 -61 5 -70 16 -10
13 -15 87 -19 318 l-5 301 -108 3 c-89 2 -108 0 -113 -13z"/>
<path d="M9584 4885 c-14 -36 3 -45 80 -45 l75 0 6 -45 c4 -24 6 -147 4 -273
-3 -175 -7 -233 -18 -245 -9 -12 -30 -17 -70 -17 -64 0 -84 -10 -79 -36 3 -18
15 -19 198 -19 l195 0 0 25 c0 24 -3 25 -67 28 -46 2 -70 8 -80 19 -10 12 -14
87 -18 317 l-5 301 -108 3 c-89 2 -108 0 -113 -13z"/>
<path d="M7350 4075 c-7 -8 -10 -22 -6 -30 6 -17 18 -19 89 -15 74 3 77 -3 77
-147 l0 -124 -33 25 c-53 41 -101 56 -174 56 -132 0 -245 -82 -295 -215 -19
-49 -23 -80 -23 -165 0 -99 2 -110 33 -172 58 -119 152 -179 276 -177 69 0
132 22 177 62 38 33 39 33 39 5 0 -45 14 -53 103 -56 96 -4 130 7 125 41 -3
20 -9 22 -78 22 l-75 0 -7 45 c-3 25 -7 226 -7 446 -1 357 -3 403 -17 408 -9
3 -55 6 -104 6 -65 0 -91 -4 -100 -15z m0 -296 c65 -14 113 -55 137 -117 27
-69 26 -321 -1 -372 -44 -83 -104 -120 -194 -120 -153 0 -251 133 -239 325 10
166 97 273 239 294 4 1 30 -4 58 -10z"/>
<path d="M8353 4083 c-7 -2 -13 -15 -13 -28 0 -30 26 -39 88 -31 80 11 77 27
80 -331 4 -312 -2 -467 -17 -492 -5 -7 -39 -15 -77 -19 -65 -7 -69 -8 -69 -32
l0 -24 188 -1 c138 0 191 3 199 12 21 26 1 40 -67 45 -37 3 -72 11 -78 17 -9
9 -13 133 -15 439 -3 381 -5 428 -19 440 -17 12 -173 16 -200 5z"/>
<path d="M11898 4080 c-48 -29 -1 -65 71 -55 86 12 82 31 79 -421 -2 -298 -6
-396 -16 -406 -6 -6 -42 -14 -78 -16 -44 -3 -67 -9 -71 -18 -13 -34 12 -39
204 -38 l188 0 0 25 c0 22 -5 25 -65 32 -42 5 -70 14 -77 24 -10 13 -13 116
-13 432 0 245 -4 422 -10 431 -11 19 -185 26 -212 10z"/>
<path d="M12309 4074 c-9 -11 -10 -20 -2 -32 8 -13 26 -17 76 -17 36 0 69 -4
74 -8 13 -14 10 -804 -3 -817 -6 -6 -42 -14 -80 -18 -56 -6 -69 -10 -72 -26
-2 -10 1 -21 6 -25 6 -3 95 -6 199 -5 172 0 188 2 191 18 6 28 -9 36 -76 40
-35 2 -66 7 -70 10 -14 15 -21 167 -21 513 -1 421 11 383 -124 383 -65 0 -88
-4 -98 -16z"/>
<path d="M7923 3819 c-67 -26 -132 -89 -169 -165 -27 -56 -29 -66 -29 -184 0
-117 2 -129 28 -182 34 -70 110 -140 174 -162 60 -20 166 -20 226 0 64 22 139
91 166 154 29 66 25 105 -9 105 -19 0 -27 -7 -34 -30 -20 -67 -29 -84 -59
-115 -47 -48 -101 -70 -177 -70 -140 0 -234 90 -249 237 l-7 62 273 3 c230 3
275 5 284 18 17 25 3 127 -26 185 -68 140 -239 203 -392 144z m225 -58 c71
-37 131 -127 132 -199 l0 -32 -242 2 c-279 3 -267 -2 -222 98 28 63 75 113
128 136 48 20 160 18 204 -5z"/>
<path d="M9336 3823 c-65 -22 -144 -96 -181 -170 -28 -55 -30 -65 -30 -183 0
-111 3 -130 23 -171 36 -72 87 -125 150 -156 51 -25 68 -28 157 -28 112 0 153
15 211 77 59 62 87 147 61 182 -15 20 -45 17 -51 -6 -2 -7 -9 -32 -15 -55 -24
-90 -100 -143 -202 -143 -90 0 -137 17 -190 70 -59 59 -79 117 -79 229 1 146
48 239 148 288 130 64 296 10 318 -104 6 -32 6 -32 -30 -26 -45 7 -66 -9 -66
-53 0 -41 22 -64 61 -64 61 0 99 45 99 119 0 80 -47 145 -135 187 -61 29 -173
32 -249 7z"/>
<path d="M9966 3820 c-120 -47 -174 -164 -107 -231 37 -37 88 -40 119 -6 45
48 13 116 -48 104 -27 -6 -29 -4 -21 11 52 98 270 115 339 27 29 -37 36 -77
18 -118 -20 -50 -58 -65 -194 -81 -174 -21 -234 -53 -268 -143 -38 -99 3 -201
101 -248 50 -25 63 -27 139 -23 88 5 138 25 200 83 15 14 29 25 30 23 2 -2 8
-18 16 -36 18 -46 55 -72 102 -72 91 0 131 57 126 180 -3 73 -4 75 -28 75 -24
0 -25 -3 -30 -81 -6 -91 -18 -114 -62 -114 -51 0 -58 37 -58 287 0 191 -3 223
-19 258 -23 49 -64 89 -113 109 -53 23 -180 20 -242 -4z m312 -388 c-6 -101
-27 -151 -84 -202 -51 -44 -93 -60 -159 -60 -69 0 -113 18 -148 59 -51 61 -29
169 42 205 16 9 74 21 128 26 108 12 155 23 193 45 14 8 27 14 29 15 2 0 2
-39 -1 -88z"/>
<path d="M10780 3819 c-25 -11 -60 -34 -77 -52 l-33 -31 0 37 c0 49 -18 57
-128 57 -97 0 -123 -12 -103 -47 8 -15 23 -18 83 -18 l73 0 3 -398 c1 -263 -1
-405 -8 -417 -9 -17 -21 -20 -74 -20 -67 0 -92 -14 -80 -44 3 -9 9 -16 13 -16
3 -1 89 -1 189 -1 192 -1 218 4 196 39 -8 12 -29 18 -80 22 -82 6 -82 5 -83
159 l-1 103 35 -26 c49 -38 108 -56 181 -56 190 0 314 150 314 382 0 152 -66
274 -175 324 -67 32 -179 33 -245 3z m227 -60 c87 -41 129 -152 121 -314 -7
-129 -52 -211 -142 -257 -31 -16 -53 -19 -110 -16 -83 4 -130 30 -170 92 -32
50 -40 101 -34 239 4 88 9 121 25 152 63 120 187 161 310 104z"/>
<path d="M11471 3822 c-67 -26 -136 -94 -173 -170 -31 -64 -33 -72 -33 -182 0
-103 3 -121 26 -170 57 -121 141 -180 269 -188 88 -5 138 7 202 47 98 62 165
231 92 231 -19 0 -26 -8 -35 -42 -33 -115 -115 -178 -234 -178 -47 0 -84 7
-111 19 -80 36 -144 144 -144 243 l0 38 254 0 c141 0 266 4 280 10 23 9 26 15
26 63 0 76 -25 139 -77 197 -65 73 -110 93 -213 97 -63 2 -96 -2 -129 -15z
m228 -66 c54 -26 105 -96 119 -163 6 -26 8 -51 6 -55 -6 -10 -466 -10 -482 0
-16 11 8 89 44 143 68 100 199 132 313 75z"/>
<path d="M12885 3823 c-142 -59 -215 -176 -215 -344 0 -143 68 -270 180 -333
51 -29 62 -31 155 -31 92 0 104 2 154 30 68 37 124 101 153 174 32 79 32 231
0 312 -29 73 -91 143 -156 176 -66 34 -208 43 -271 16z m231 -64 c52 -24 99
-77 128 -138 31 -69 30 -226 -3 -298 -26 -59 -82 -115 -137 -138 -51 -21 -159
-19 -209 4 -90 42 -145 137 -153 263 -12 201 89 328 262 328 50 0 82 -6 112
-21z"/>
</g>
</svg>
